# Blender v2.83.4 OBJ File: ''
# www.blender.org
mtllib Tree.mtl
o Cylinder
v 0.000000 -1.000000 -0.790000
v -0.000000 16.498009 -0.207932
v 0.464350 -1.000000 -0.639123
v 0.122219 16.498009 -0.168220
v 0.751335 -1.000000 -0.244123
v 0.197755 16.498009 -0.064254
v 0.751335 -1.000000 0.244123
v 0.197755 16.498009 0.064254
v 0.464350 -1.000000 0.639123
v 0.099078 16.777594 0.064646
v -0.000000 -1.000000 0.790000
v -0.040677 16.777594 0.110055
v -0.464350 -1.000000 0.639123
v -0.180432 16.777594 0.064646
v -0.751335 -1.000000 0.244124
v -0.266806 16.777594 -0.054237
v -0.751335 -1.000000 -0.244124
v -0.266806 16.777594 -0.201184
v -0.464350 -1.000000 -0.639124
v -0.122219 16.498009 -0.168220
v -0.000004 18.642969 -0.056985
v 0.033491 18.642969 -0.046102
v 0.054192 18.642969 -0.017609
v 0.054192 18.642969 0.017609
v 0.033491 18.642969 0.046102
v -0.040682 19.230307 -0.062549
v -0.078983 19.230307 -0.074994
v -0.102654 19.230307 -0.107574
v -0.054200 18.642969 -0.017609
v -0.033499 18.642969 -0.046102
v -0.000000 7.434991 -0.498966
v 0.293285 7.434991 -0.403672
v 0.474545 7.749004 -0.154189
v 0.474545 7.749004 0.154189
v 0.293285 7.749004 0.403672
v -0.000000 7.749004 0.498966
v -0.293285 7.749004 0.403672
v -0.474545 7.434991 0.154189
v -0.474545 7.434991 -0.154189
v -0.293285 7.434991 -0.403672
v -0.000000 12.123507 -0.353449
v 0.207752 12.123507 -0.285946
v 0.336150 12.123507 -0.109222
v 0.336150 12.123507 0.109222
v 0.196883 11.775446 0.199263
v -0.040677 11.775446 0.276450
v -0.278237 11.775446 0.199263
v -0.425057 11.775446 -0.002818
v -0.425057 11.775446 -0.252603
v -0.278237 11.775446 -0.454684
v 1.332371 13.298054 2.878620
v 1.268004 13.422627 2.744242
v 1.385584 13.324003 2.942827
v 1.293384 13.422627 2.822354
v 1.268004 13.422627 2.857286
v 1.309605 13.324003 3.047403
v 1.262648 13.324003 3.032146
v 1.233627 13.324003 2.992201
v 1.233627 13.324003 2.942827
v 1.185873 13.422627 2.744242
v -1.130627 9.689567 -3.687647
v -0.998262 9.689567 -3.644640
v -0.916457 9.689567 -3.532043
v -0.916457 9.689567 -3.392868
v -0.998262 9.689567 -3.280272
v -1.130627 9.689567 -3.237264
v -1.262991 9.689567 -3.280272
v -1.344798 9.689567 -3.392868
v -1.344798 9.689567 -3.532043
v -1.262991 9.689567 -3.644640
v 1.764427 15.299667 4.155424
v 1.759165 15.309852 4.144438
v 1.768777 15.301789 4.160673
v 1.761240 15.309852 4.150824
v 1.759165 15.309852 4.153679
v 1.762566 15.301789 4.169222
v 1.758727 15.301789 4.167975
v 1.756354 15.301789 4.164710
v 1.756354 15.301789 4.160673
v 1.752450 15.309852 4.144438
v -0.750746 12.398459 -5.140094
v -0.746464 12.398459 -5.138703
v -0.743818 12.398459 -5.135061
v -0.743818 12.398459 -5.130559
v -0.746464 12.398459 -5.126917
v -0.750746 12.398459 -5.125526
v -0.755027 12.398459 -5.126917
v -0.757673 12.398459 -5.130559
v -0.757673 12.398459 -5.135061
v -0.755027 12.398459 -5.138703
v 0.378818 3.217495 -0.521398
v 0.612940 3.374502 -0.199156
v 0.612940 3.374502 0.199156
v 0.378818 3.374502 0.521398
v -0.000000 3.374502 0.644483
v -0.378818 3.374502 0.521398
v -0.612940 3.217495 0.199156
v -0.612940 3.217495 -0.199156
v -0.378817 3.217495 -0.521398
v -0.000000 3.217495 -0.644483
vt 1.000000 0.875000
vt 1.000000 1.000000
vt 0.900000 1.000000
vt 0.900000 0.875000
vt 0.800000 1.000000
vt 0.800000 0.875000
vt 0.700000 1.000000
vt 0.700000 0.875000
vt 0.600000 1.000000
vt 0.600000 0.875000
vt 0.500000 1.000000
vt 0.500000 0.875000
vt 0.400000 1.000000
vt 0.400000 0.875000
vt 0.300000 1.000000
vt 0.300000 0.875000
vt 0.200000 1.000000
vt 0.200000 0.875000
vt 0.400000 1.000000
vt 0.300000 1.000000
vt 0.100000 1.000000
vt 0.100000 0.875000
vt -0.000000 1.000000
vt -0.000000 0.875000
vt 0.750000 0.490000
vt 0.891068 0.444164
vt 0.978254 0.324164
vt 0.978254 0.175836
vt 0.891068 0.055836
vt 0.750000 0.010000
vt 0.608932 0.055836
vt 0.521746 0.175836
vt 0.521746 0.324164
vt 0.608932 0.444164
vt 0.391068 0.444164
vt 0.250000 0.490000
vt 0.108932 0.444164
vt 0.021746 0.324164
vt 0.021746 0.175836
vt 0.108932 0.055836
vt 0.250000 0.010000
vt 0.391068 0.055836
vt 0.478254 0.175836
vt 0.478254 0.324164
vt 0.500000 1.000000
vt 0.600000 1.000000
vt 0.700000 1.000000
vt 1.000000 1.000000
vt 0.900000 1.000000
vt 0.800000 1.000000
vt 0.100000 1.000000
vt -0.000000 1.000000
vt 0.200000 1.000000
vt 0.100000 0.625000
vt 0.100000 0.750000
vt -0.000000 0.750000
vt -0.000000 0.625000
vt 0.200000 0.625000
vt 0.200000 0.750000
vt 0.300000 0.625000
vt 0.300000 0.750000
vt 0.400000 0.625000
vt 0.400000 0.750000
vt 0.500000 0.625000
vt 0.500000 0.750000
vt 0.600000 0.625000
vt 0.600000 0.750000
vt 0.700000 0.625000
vt 0.700000 0.750000
vt 0.800000 0.625000
vt 0.800000 0.750000
vt 0.900000 0.625000
vt 0.900000 0.750000
vt 1.000000 0.625000
vt 1.000000 0.750000
vt 0.200000 0.875000
vt 0.100000 0.875000
vt 0.900000 0.875000
vt 0.800000 0.875000
vt 0.600000 0.875000
vt 0.500000 0.875000
vt 0.300000 0.875000
vt 1.000000 0.875000
vt 0.700000 0.875000
vt 0.400000 0.875000
vt -0.000000 0.875000
vt 0.400000 0.750000
vt 0.500000 0.750000
vt 0.100000 0.750000
vt 0.200000 0.750000
vt 0.800000 0.750000
vt 0.900000 0.750000
vt 0.600000 0.750000
vt 0.300000 0.750000
vt 1.000000 0.750000
vt 0.700000 0.750000
vt -0.000000 0.750000
vt 0.400000 0.875000
vt 0.300000 0.875000
vt 0.100000 0.875000
vt -0.000000 0.875000
vt 0.800000 0.875000
vt 0.700000 0.875000
vt 0.500000 0.875000
vt 0.200000 0.875000
vt 0.900000 0.875000
vt 0.600000 0.875000
vt 1.000000 0.875000
vt -0.000000 0.750000
vt 0.100000 0.750000
vt 0.700000 0.750000
vt 0.800000 0.750000
vt 0.400000 0.750000
vt 0.500000 0.750000
vt 0.200000 0.750000
vt 0.900000 0.750000
vt 0.600000 0.750000
vt 0.300000 0.750000
vt 1.000000 0.750000
vt 1.000000 0.500000
vt 0.900000 0.500000
vt 0.800000 0.500000
vt 0.700000 0.500000
vt 0.600000 0.500000
vt 0.500000 0.500000
vt 0.400000 0.500000
vt 0.300000 0.500000
vt 0.200000 0.500000
vt 0.100000 0.500000
vt -0.000000 0.500000
vn 0.3089 0.0316 -0.9506
vn 0.8086 0.0316 -0.5875
vn 0.9995 0.0316 0.0000
vn 0.3484 0.0267 0.9370
vn 0.3089 0.0316 0.9506
vn -0.3089 0.0316 0.9506
vn -0.8086 0.0316 0.5875
vn -0.9995 0.0316 0.0000
vn -0.8072 0.0668 0.5865
vn -0.4682 0.0458 -0.8824
vn 0.1132 0.0452 -0.9925
vn 0.0000 -1.0000 0.0000
vn 0.5869 0.0562 -0.8077
vn -0.3083 0.0668 0.9489
vn -0.1786 0.0408 0.9831
vn 0.3038 0.0313 0.9522
vn 0.3083 0.0668 -0.9489
vn 0.9978 0.0668 0.0000
vn 0.8072 0.0668 -0.5865
vn -0.3083 0.0668 -0.9489
vn 0.1368 0.0651 -0.9885
vn -0.3658 0.0599 -0.9288
vn -0.3089 0.0328 -0.9505
vn -0.8086 0.0328 -0.5875
vn -0.9995 0.0328 0.0000
vn -0.8210 0.0322 0.5700
vn 0.8086 0.0316 0.5875
vn 0.7958 0.0322 -0.6047
vn 0.3089 0.0328 -0.9505
vn 0.0040 0.0105 -0.9999
vn -0.8090 -0.0041 -0.5878
vn -0.9999 0.0114 0.0000
vn -0.8188 0.0311 0.5733
vn -0.3086 0.0494 0.9499
vn 0.3085 0.0556 0.9496
vn 0.7054 0.0407 0.7077
vn 0.7978 0.0305 -0.6021
vn 0.3089 0.0295 -0.9506
vn -0.7120 0.7022 -0.0032
vn 0.8176 0.3744 -0.4375
vn 0.6209 -0.7645 0.1731
vn -0.6824 0.7310 0.0000
vn -0.6659 0.7450 -0.0399
vn 0.8880 -0.4515 -0.0877
vn -0.7810 -0.2609 0.5674
vn -0.3380 0.9070 -0.2510
vn -0.3578 -0.8048 0.4735
vn -0.1769 -0.8199 0.5444
vn 0.1601 -0.8553 -0.4927
vn 0.5197 0.7664 0.3776
vn -0.8644 0.1850 0.4676
vn -0.1376 -0.8954 -0.4234
vn 0.9329 0.3601 0.0000
vn -0.1988 0.7656 0.6118
vn -0.4185 -0.8558 -0.3041
vn 0.8760 -0.2857 -0.3887
vn 0.1714 0.8321 0.5275
vn -0.8128 -0.5826 0.0000
vn -0.8018 -0.1334 0.5825
vn 0.7563 0.2279 -0.6132
vn -0.8417 -0.1553 0.5171
vn -0.2798 -0.4244 0.8612
vn -0.9583 0.0853 0.2728
vn 0.8788 0.1150 -0.4632
vn 0.9647 -0.0782 -0.2516
vn -0.9668 0.2555 0.0000
vn -0.9185 -0.0518 0.3920
vn 0.6893 -0.5234 0.5008
vn 0.2800 0.4228 0.8619
vn -0.9980 0.0636 0.0000
vn 0.2524 -0.5769 -0.7768
vn 0.7972 0.1700 0.5792
vn -0.7513 0.3709 0.5459
vn -0.2627 -0.5267 -0.8084
vn 0.9773 -0.2118 0.0000
vn -0.2704 0.4841 0.8322
vn -0.7693 -0.3095 -0.5589
vn 0.7082 -0.4835 -0.5145
vn 0.8052 0.0322 -0.5921
vn -0.8119 0.0322 0.5829
usemtl None
s off
f 41/1/1 2/2/1 4/3/1 42/4/1
f 42/4/2 4/3/2 6/5/2 43/6/2
f 43/6/3 6/5/3 8/7/3 44/8/3
f 44/8/4 8/7/4 10/9/4 45/10/4
f 45/10/5 10/9/5 12/11/5 46/12/5
f 46/12/6 12/11/6 14/13/6 47/14/6
f 47/14/7 14/13/7 16/15/7 48/16/7
f 48/16/8 16/15/8 18/17/8 49/18/8
f 16/15/9 14/13/9 27/19/9 28/20/9
f 49/18/10 18/17/10 20/21/10 50/22/10
f 50/22/11 20/21/11 2/23/11 41/24/11
f 1/25/12 3/26/12 5/27/12 7/28/12 9/29/12 11/30/12 13/31/12 15/32/12 17/33/12 19/34/12
f 22/35/13 21/36/13 30/37/13 29/38/13 28/39/13 27/40/13 26/41/13 25/42/13 24/43/13 23/44/13
f 14/13/14 12/11/14 26/45/14 27/19/14
f 12/11/15 10/9/15 25/46/15 26/45/15
f 10/9/16 8/7/16 24/47/16 25/46/16
f 4/3/17 2/2/17 21/48/17 22/49/17
f 8/7/18 6/5/18 23/50/18 24/47/18
f 6/5/19 4/3/19 22/49/19 23/50/19
f 2/23/20 20/21/20 30/51/20 21/52/20
f 20/21/21 18/17/21 29/53/21 30/51/21
f 18/17/22 16/15/22 28/20/22 29/53/22
f 99/54/23 40/55/23 31/56/23 100/57/23
f 98/58/24 39/59/24 40/55/24 99/54/24
f 97/60/25 38/61/25 39/59/25 98/58/25
f 96/62/26 37/63/26 38/61/26 97/60/26
f 95/64/6 36/65/6 37/63/6 96/62/6
f 94/66/5 35/67/5 36/65/5 95/64/5
f 93/68/27 34/69/27 35/67/27 94/66/27
f 92/70/3 33/71/3 34/69/3 93/68/3
f 91/72/28 32/73/28 33/71/28 92/70/28
f 100/74/29 31/75/29 32/73/29 91/72/29
f 40/55/30 50/22/30 41/24/30 31/56/30
f 39/59/31 49/18/31 50/22/31 40/55/31
f 38/61/32 48/16/32 49/18/32 39/59/32
f 37/63/33 47/14/33 48/16/33 38/61/33
f 36/65/34 46/12/34 47/14/34 37/63/34
f 35/67/35 45/10/35 46/12/35 36/65/35
f 34/69/36 44/8/36 45/10/36 35/67/36
f 33/71/3 43/6/3 44/8/3 34/69/3
f 32/73/37 42/4/37 43/6/37 33/71/37
f 31/75/38 41/1/38 42/4/38 32/73/38
f 50/22/39 49/18/39 59/76/39 60/77/39
f 43/6/40 42/4/40 52/78/40 53/79/40
f 46/12/41 45/10/41 55/80/41 56/81/41
f 49/18/42 48/16/42 58/82/42 59/76/42
f 42/4/43 41/1/43 51/83/43 52/78/43
f 45/10/44 44/8/44 54/84/44 55/80/44
f 48/16/45 47/14/45 57/85/45 58/82/45
f 41/24/46 50/22/46 60/77/46 51/86/46
f 44/8/47 43/6/47 53/79/47 54/84/47
f 47/14/48 46/12/48 56/81/48 57/85/48
f 36/65/49 37/63/49 67/87/49 66/88/49
f 39/59/50 40/55/50 70/89/50 69/90/50
f 32/73/51 33/71/51 63/91/51 62/92/51
f 35/67/52 36/65/52 66/88/52 65/93/52
f 38/61/53 39/59/53 69/90/53 68/94/53
f 31/75/54 32/73/54 62/92/54 61/95/54
f 34/69/55 35/67/55 65/93/55 64/96/55
f 37/63/56 38/61/56 68/94/56 67/87/56
f 40/55/57 31/56/57 61/97/57 70/89/57
f 33/71/58 34/69/58 64/96/58 63/91/58
f 58/82/59 57/85/59 77/98/59 78/99/59
f 51/86/60 60/77/60 80/100/60 71/101/60
f 54/84/61 53/79/61 73/102/61 74/103/61
f 57/85/62 56/81/62 76/104/62 77/98/62
f 60/77/63 59/76/63 79/105/63 80/100/63
f 53/79/64 52/78/64 72/106/64 73/102/64
f 56/81/65 55/80/65 75/107/65 76/104/65
f 59/76/66 58/82/66 78/99/66 79/105/66
f 52/78/67 51/83/67 71/108/67 72/106/67
f 55/80/68 54/84/68 74/103/68 75/107/68
f 70/89/69 61/97/69 81/109/69 90/110/69
f 63/91/70 64/96/70 84/111/70 83/112/70
f 66/88/71 67/87/71 87/113/71 86/114/71
f 69/90/72 70/89/72 90/110/72 89/115/72
f 62/92/73 63/91/73 83/112/73 82/116/73
f 65/93/74 66/88/74 86/114/74 85/117/74
f 68/94/75 69/90/75 89/115/75 88/118/75
f 61/95/76 62/92/76 82/116/76 81/119/76
f 64/96/77 65/93/77 85/117/77 84/111/77
f 67/87/78 68/94/78 88/118/78 87/113/78
f 1/120/29 100/74/29 91/72/29 3/121/29
f 3/121/79 91/72/79 92/70/79 5/122/79
f 5/122/3 92/70/3 93/68/3 7/123/3
f 7/123/27 93/68/27 94/66/27 9/124/27
f 9/124/5 94/66/5 95/64/5 11/125/5
f 11/125/6 95/64/6 96/62/6 13/126/6
f 13/126/80 96/62/80 97/60/80 15/127/80
f 15/127/25 97/60/25 98/58/25 17/128/25
f 17/128/24 98/58/24 99/54/24 19/129/24
f 19/129/23 99/54/23 100/57/23 1/130/23
